<svg width="227" height="78" viewBox="0 0 227 78" xmlns="http://www.w3.org/2000/svg" xmlns:xlink="http://www.w3.org/1999/xlink" overflow="hidden"><g id="00---Develoepr-Assets" fill="none" fill-rule="evenodd"><g id="Developer-Assets---01" fill="#FFFFFF" transform="translate(-80 -148)"><g id="Assets" transform="translate(80 148)"><g id="branding/logo-short"><path d="M208.046 59.467C210.15 57.3259 212.694 56.2554 215.67 56.2554 218.647 56.2554 221.189 57.3259 223.294 59.467 225.401 61.6055 226.454 64.1273 226.454 67.0293 226.454 69.9306 225.401 72.4524 223.294 74.5922 221.189 76.732 218.647 77.8031 215.67 77.8031 212.694 77.8031 210.15 76.732 208.046 74.5922 205.939 72.4524 204.885 69.9306 204.885 67.0293 204.885 64.1273 205.939 61.6055 208.046 59.467" id="Fill-1" fill="#000000"/><path d="M1.74219 0.0588992C1.28113 0.0588992 0.836669 0.242537 0.510239 0.568663 0.183809 0.894789 0 1.33761 0 1.79947L0 14.6418C0 15.1037 0.183809 15.5465 0.510239 15.8726 0.836669 16.1988 1.28113 16.3824 1.74219 16.3824L20.696 16.3824C21.1762 16.3824 21.5665 16.7724 21.5665 17.2533L21.5665 74.4949C21.5665 74.9555 21.7503 75.3995 22.0768 75.7257 22.4044 76.0518 22.8476 76.2354 23.3099 76.2354L38.3423 76.2354C38.8046 76.2354 39.2478 76.0518 39.5743 75.7257 39.9007 75.3995 40.0845 74.9555 40.0845 74.4949L40.0845 17.2533C40.0845 16.7724 40.4749 16.3824 40.9562 16.3824L59.9101 16.3824C60.3711 16.3824 60.8156 16.1988 61.142 15.8726 61.4684 15.5465 61.6522 15.1037 61.6522 14.6418L61.6522 1.79947C61.6522 1.33761 61.4684 0.894789 61.142 0.568663 60.8156 0.242537 60.3711 0.0588992 59.9101 0.0588992L1.74219 0.0588992Z" id="Fill-3" fill="#000000"/><path d="M107.864 58.2147C106.7 59.3976 105.324 60.0596 103.737 60.2009L88.2436 60.2009C87.7623 60.2009 87.3719 59.8115 87.3719 59.3312L87.3719 47.5962C87.3719 47.1153 87.7623 46.7265 88.2436 46.7265L103.737 46.7265C105.324 46.8678 106.7 47.5305 107.864 48.7128 109.187 50.0566 109.849 51.6412 109.849 53.4634 109.849 55.2863 109.187 56.8708 107.864 58.2147L107.864 58.2147ZM87.3719 16.836C87.3719 16.6044 87.4629 16.3839 87.6277 16.2206 87.7912 16.0572 88.0131 15.9651 88.2436 15.9651 91.3905 15.9663 101.977 15.9712 101.977 15.9712 103.79 16.0031 105.343 16.6689 106.634 17.9826 107.957 19.3264 108.619 20.911 108.619 22.7333 108.619 24.5561 107.957 26.1395 106.634 27.4845 105.343 28.797 103.79 29.4634 101.977 29.4959 101.977 29.4959 91.3905 29.5008 88.2436 29.5021 88.0131 29.5021 87.7912 29.4099 87.6277 29.2466 87.4629 29.0832 87.3719 28.8627 87.3719 28.6312L87.3719 16.836ZM122.283 37.5066C122.218 37.4409 122.152 37.3745 122.087 37.31 121.777 37.0017 121.744 36.5122 122.009 36.1646 124.995 32.2271 126.491 27.7492 126.491 22.732 126.491 16.6093 124.27 11.2894 119.824 6.77642 115.382 2.25795 110.02 0.000245669 103.738 0.000245669L103.737 0.000245669 70.5974 0.000245669C70.1351 0.000245669 69.6918 0.183883 69.3642 0.510009 69.0377 0.836135 68.8539 1.28018 68.8539 1.74204L68.8539 74.4952C68.8539 74.957 69.0377 75.3992 69.3642 75.726 69.6918 76.0521 70.1351 76.2357 70.5974 76.2357L106.196 76.2357 106.196 76.197 106.197 76.197C112.478 76.197 117.841 73.9375 122.283 69.4209 126.729 64.9061 128.95 59.5843 128.95 53.4622 128.95 47.3395 126.729 42.0195 122.283 37.5066L122.283 37.5066Z" id="Fill-5" fill="#000000"/><path d="M164.941 60.2599 155.842 60.2599C155.361 60.2599 154.971 59.8699 154.971 59.389L154.971 16.8673C154.971 16.3858 155.361 15.9964 155.842 15.9964L164.941 15.9964C177.175 15.9964 187.094 25.9043 187.094 38.1282 187.094 50.3515 177.175 60.2599 164.941 60.2599M168.015 0.0586535 138.197 0.0586535C137.235 0.0586535 136.454 0.837425 136.454 1.79922L136.454 74.4928C136.454 74.9546 136.639 75.3981 136.965 75.7248 137.292 76.0509 137.736 76.2346 138.2 76.2333 144.819 76.226 168.015 76.1971 168.015 76.1971 189.059 76.1971 205.505 59.1526 205.505 38.1282 205.505 17.102 189.059 0.0586535 168.015 0.0586535" id="Fill-7" fill="#000000"/></g></g></g></g></svg>